<?xml version="1.0" encoding="UTF-8"?>
<!DOCTYPE svg PUBLIC "-//W3C//DTD SVG 1.1//EN"
    "http://www.w3.org/Graphics/SVG/1.1/DTD/svg11.dtd"><svg xmlns="http://www.w3.org/2000/svg" height="340" width="482" xmlns:xlink="http://www.w3.org/1999/xlink" version="1.11.1"><path d="M 0.0000,340.0000 L 113.0000,170.0000 L 0.0000,0.0000 L 85.0000,0.0000 L 198.0000,170.0000 L 85.0000,340.0000 L 0.0000,340.0000 ZM 0.0000,340.0000 " fill="#352950"/><path d="M 113.0000,340.0000 L 226.0000,170.0000 L 113.0000,0.0000 L 198.0000,0.0000 L 425.0000,340.0000 L 340.0000,340.0000 L 269.0000,234.0000 L 198.0000,340.0000 L 113.0000,340.0000 ZM 113.0000,340.0000 " fill="#4A3A74"/><path d="M 387.0000,241.0000 L 350.0000,184.0000 L 482.0000,184.0000 L 482.0000,241.0000 L 387.0000,241.0000 ZM 387.0000,241.0000 " fill="#7C3679"/><path d="M 331.0000,156.0000 L 293.0000,99.0000 L 482.0000,99.0000 L 482.0000,156.0000 L 331.0000,156.0000 ZM 331.0000,156.0000 " fill="#7C3679"/></svg>
